<svg xmlns="http://www.w3.org/2000/svg" width="128" height="128" viewBox="0 0 128 128">
  <defs>
    <linearGradient id="bg128" x1="0%" y1="0%" x2="100%" y2="100%">
      <stop offset="0%" style="stop-color:#667eea"/>
      <stop offset="50%" style="stop-color:#764ba2"/>
      <stop offset="100%" style="stop-color:#9333ea"/>
    </linearGradient>
    <filter id="shadow" x="-20%" y="-20%" width="140%" height="140%">
      <feDropShadow dx="0" dy="4" stdDeviation="4" flood-color="#000" flood-opacity="0.25"/>
    </filter>
  </defs>
  <!-- Background -->
  <rect width="128" height="128" rx="26" fill="url(#bg128)"/>
  <!-- Document shape -->
  <path d="M30 24h48l20 20v60c0 4-4 8-8 8H30c-4 0-8-4-8-8V32c0-4 4-8 8-8z" fill="white" opacity="0.15"/>
  <!-- Folded corner -->
  <path d="M78 24v20h20" fill="none" stroke="white" stroke-width="3" opacity="0.3"/>
  <!-- Document lines -->
  <g filter="url(#shadow)">
    <path d="M32 50h48" stroke="white" stroke-width="5" stroke-linecap="round" opacity="0.95"/>
    <path d="M32 68h36" stroke="white" stroke-width="5" stroke-linecap="round" opacity="0.85"/>
    <path d="M32 86h28" stroke="white" stroke-width="5" stroke-linecap="round" opacity="0.75"/>
  </g>
  <!-- Download badge -->
  <circle cx="100" cy="100" r="24" fill="#22c55e" filter="url(#shadow)"/>
  <path d="M100 88v18M90 100l10 10 10-10" stroke="white" stroke-width="5" stroke-linecap="round" stroke-linejoin="round"/>
</svg>
